<?xml version="1.0" encoding="UTF-8"?>
<svg id="Layer_2" data-name="Layer 2" xmlns="http://www.w3.org/2000/svg" viewBox="0 0 1692.89 1858.81">
  <defs>
    <style>
      .cls-1 {
        font-family: BreulGroteskA-Black, BreulGroteskA-Black;
        font-size: 305.32px;
        font-weight: 800;
      }

      .cls-1, .cls-2 {
        fill: #2e3192;
      }

      .cls-2 {
        stroke-width: 0px;
      }
    </style>
  </defs>
  <g id="Layer_1-2" data-name="Layer 1">
    <g>
      <g>
        <path class="cls-2" d="m943.82,1086.6v-43.47c0-15.46-12.01-28.04-26.77-28.04h-218.06v-20.31c0-15.47-12.01-28.04-26.77-28.04h-57.33c-14.75,0-26.77,12.58-26.77,28.04v91.82c-6.94,6.73-11.26,16.14-11.26,26.55v194.8c0,20.4,16.6,37,37,37h304.21c20.4,0,37-16.6,37-37v-194.8c0-10.41-4.32-19.82-11.26-26.55Zm-154.95,115.27c-1.04.53-1.68,1.52-1.68,2.59v77.69c0,8.77-7.56,15.92-16.86,15.92s-16.86-7.14-16.86-15.92v-77.69c0-1.07-.64-2.06-1.68-2.59-12.39-6.39-20.09-18.58-20.09-31.83,0-20,17.32-36.28,38.63-36.28s38.63,16.28,38.63,36.28c0,13.25-7.7,25.44-20.09,31.83Zm125.21-125.73h-296.2l12.57-24.85h271.06l12.57,24.85Z"/>
        <path class="cls-2" d="m765.97,1625.35c-207.88,0-377-136.89-377-305.14v-512.35l14.59-4.61c61.92-19.56,121.78-39.05,179.67-57.91,57.98-18.88,117.93-38.4,180.02-58.02l6.58-2.08,6.53,2.26c56.48,19.51,117.16,38.98,175.83,57.82,58.89,18.9,119.79,38.45,176.71,58.11l14.07,4.86v511.93c0,168.25-169.12,305.14-377,305.14Zm-335.23-786.9v481.76c0,145.22,150.38,263.37,335.23,263.37h0c184.84,0,335.22-118.15,335.22-263.37v-482.14c-52.42-17.89-107.93-35.71-161.77-52.99-56.64-18.18-115.14-36.96-170.17-55.86-59.58,18.86-117.25,37.64-173.09,55.83-53.42,17.4-108.52,35.34-165.42,53.4Z"/>
      </g>
      <text class="cls-1" transform="translate(208.15 877.02) rotate(-55.29)"><tspan x="0" y="0">B</tspan></text>
      <text class="cls-1" transform="translate(348.36 698.99) rotate(-38.38)"><tspan x="0" y="0">I</tspan></text>
      <text class="cls-1" transform="translate(456.86 615.48) rotate(-22.32)"><tspan x="0" y="0">T</tspan></text>
      <text class="cls-1" transform="translate(650.96 541.17) rotate(-1.45)"><tspan x="0" y="0">K</tspan></text>
      <text class="cls-1" transform="translate(896.61 547.08) rotate(19.58)"><tspan x="0" y="0">E</tspan></text>
      <text class="cls-1" transform="translate(1089.65 624.11) rotate(38.66)"><tspan x="0" y="0">E</tspan></text>
      <text class="cls-1" transform="translate(1247.13 759.07) rotate(58.62)"><tspan x="0" y="0">P</tspan></text>
      <circle class="cls-2" cx="1414.66" cy="1028.54" r="93.46"/>
      <circle class="cls-2" cx="117.28" cy="1028.54" r="93.46"/>
      <g>
        <path class="cls-2" d="m92.99,1237.12c-.81-.11-1.63-.22-2.44-.33-1-8.25-1.88-16.59-2.65-25.02-2.79-.45-5.58-.91-8.37-1.37.61,6.93,1.31,13.81,2.08,20.63-.81-.1-1.62-.2-2.43-.3-.77-6.85-1.46-13.75-2.07-20.71-2.67-.46-5.34-.92-8.01-1.4.74,8.68,1.61,17.28,2.59,25.78-.81-.1-1.62-.2-2.43-.3-1.19-10.34-2.2-20.81-3.03-31.41,7.88,1.47,15.76,2.86,23.64,4.18.87,10.2,1.92,20.28,3.13,30.24Z"/>
        <path class="cls-2" d="m73.91,1268.56c7.94.64,15.88,1.22,23.81,1.72,1.57,9.56,3.29,19,5.17,28.32-.82-.03-1.63-.06-2.45-.09-1.55-7.71-2.99-15.49-4.32-23.36-3.24-.17-6.48-.36-9.72-.56,1.15,6.92,2.39,13.77,3.7,20.56-.82-.04-1.63-.08-2.45-.12-1.31-6.82-2.55-13.7-3.7-20.64-3.06-.19-6.13-.38-9.19-.59-.28-1.74-.56-3.49-.84-5.24Z"/>
        <path class="cls-2" d="m85.94,1329.93c7.94-.13,15.88-.32,23.81-.58,2.22,9.05,4.59,17.97,7.1,26.78-.81.05-1.63.1-2.44.15-2.07-7.28-4.05-14.65-5.92-22.09-3.24.14-6.47.26-9.71.38,1.62,6.54,3.33,13.03,5.1,19.45-.82.04-1.63.08-2.45.11-1.78-6.44-3.48-12.95-5.11-19.52-3.06.11-6.12.21-9.19.3-.4-1.65-.8-3.3-1.2-4.96Z"/>
        <path class="cls-2" d="m134.85,1410.68c-.81.12-1.61.25-2.42.37-2.61-6.96-5.12-14-7.54-21.12-2.78.37-5.57.72-8.35,1.08,1.97,5.87,4.01,11.68,6.11,17.43-.8.13-1.6.27-2.41.4-2.11-5.78-4.15-11.61-6.12-17.5-2.67.33-5.34.64-8.01.96,2.44,7.35,4.98,14.61,7.63,21.78-.8.13-1.6.27-2.41.4-3.21-8.72-6.26-17.57-9.17-26.55,7.89-.86,15.78-1.79,23.64-2.78,2.87,8.64,5.89,17.15,9.04,25.54Z"/>
        <path class="cls-2" d="m133.17,1438.08c1.33-.27,2.83-.25,4.49.07,1.67.32,3.37,1.05,5.13,2.2,1.75,1.15,3.48,2.76,5.19,4.83,1.71,2.07,3.29,4.72,4.77,7.95,1.06,2.32,1.84,4.39,2.33,6.24.5,1.85.76,3.48.8,4.92.03,1.43-.13,2.65-.49,3.66-.36,1.01-.88,1.81-1.57,2.4-.71-1.47-1.42-2.94-2.12-4.41.61-.4.99-1.01,1.15-1.82.16-.81.16-1.76,0-2.85-.16-1.09-.46-2.28-.9-3.58-.44-1.3-.97-2.63-1.6-4.01-.85-1.87-1.85-3.56-2.99-5.09-1.15-1.53-2.39-2.79-3.72-3.79-1.34-1.01-2.75-1.73-4.23-2.16-1.48-.44-2.96-.5-4.45-.19-1.49.31-2.68.93-3.58,1.86-.89.93-1.48,2.11-1.75,3.52-.28,1.42-.26,3.01.05,4.77.31,1.76.89,3.62,1.76,5.55.63,1.42,1.32,2.76,2.06,4.03.74,1.27,1.51,2.38,2.31,3.35.8.97,1.61,1.73,2.42,2.31.81.57,1.63.88,2.46.95.71,1.5,1.42,3,2.14,4.49-1.04-.13-2.13-.51-3.28-1.15-1.15-.64-2.33-1.55-3.53-2.74-1.21-1.19-2.4-2.66-3.57-4.42-1.17-1.75-2.3-3.83-3.38-6.24-1.5-3.36-2.38-6.3-2.65-8.78-.27-2.48-.12-4.56.43-6.22.56-1.66,1.42-2.94,2.57-3.84,1.15-.9,2.41-1.49,3.76-1.78Z"/>
        <path class="cls-2" d="m184.05,1518.41c-2.15-3.58-4.26-7.2-6.35-10.84-6.75,2.33-13.52,4.63-20.31,6.88-.75-1.34-1.5-2.68-2.25-4.02,6.8-2.2,13.59-4.45,20.35-6.73-2.06-3.66-4.1-7.36-6.1-11.08.78-.23,1.57-.47,2.35-.71,4.71,8.73,9.58,17.3,14.62,25.7-.77.27-1.55.54-2.32.81Z"/>
        <path class="cls-2" d="m200.92,1540.7c.8,1.22,1.61,2.43,2.42,3.64-7.35,3.11-14.72,6.17-22.12,9.17-.83-1.26-1.66-2.52-2.48-3.79,7.42-2.96,14.81-5.96,22.17-9.02Z"/>
        <path class="cls-2" d="m237.29,1590.35c.97,1.2,1.95,2.4,2.93,3.59-10.09.09-20.24-.07-30.47-.47-1.32-1.7-2.63-3.42-3.93-5.14,4.19-7.45,8.47-14.83,12.83-22.14.92,1.26,1.85,2.51,2.78,3.76-3.87,6.55-7.68,13.16-11.42,19.83,9.14.39,18.24.58,27.27.57Z"/>
        <path class="cls-2" d="m273.85,1631.57c-.7.43-1.4.87-2.1,1.3-4.66-4.82-9.26-9.73-13.78-14.72-2.43,1.45-4.87,2.89-7.31,4.33,3.71,4.11,7.47,8.17,11.27,12.17-.69.44-1.38.88-2.08,1.32-3.81-4.02-7.58-8.09-11.3-12.22-2.34,1.37-4.68,2.73-7.03,4.09,4.62,5.16,9.31,10.23,14.07,15.21-.69.44-1.38.88-2.08,1.32-5.78-6.06-11.46-12.25-17.03-18.56,6.96-3.97,13.88-7.99,20.77-12.05,5.43,6.06,10.96,12,16.59,17.81Z"/>
        <path class="cls-2" d="m329.97,1682.92c-2.6,7.98-5.1,16.01-7.51,24.08-1.22-.96-2.44-1.93-3.66-2.9.54-2,1.1-3.99,1.65-5.99-4.81-3.87-9.57-7.81-14.29-11.83-2.43.43-4.86.85-7.3,1.26-1.18-1.02-2.36-2.05-3.53-3.08,10.09-1.58,20.07-3.38,29.94-5.39,1.56,1.29,3.12,2.57,4.69,3.84Zm-4.33-.36c-5.43,1.13-10.88,2.2-16.37,3.2,3.99,3.38,8.02,6.71,12.08,9.99,1.4-4.41,2.83-8.81,4.29-13.19Z"/>
        <path class="cls-2" d="m362.84,1711c-5.26,4.82-10.54,9.62-15.86,14.39-1.17-.83-2.33-1.67-3.49-2.51,6-5.32,11.97-10.67,17.9-16.06,1.78,1.27,3.56,2.53,5.35,3.77.39,8.76.95,17.55,1.68,26.38,5.14-4.94,10.25-9.9,15.32-14.89,1.16.76,2.32,1.51,3.48,2.25-5.67,5.65-11.39,11.27-17.15,16.85-1.9-1.24-3.79-2.49-5.68-3.76-.69-8.84-1.2-17.65-1.55-26.42Z"/>
        <path class="cls-2" d="m410.75,1738.79c4.06,2.38,8.14,4.71,12.25,7.01,2.8,1.56,4.85,3.09,6.13,4.61,1.29,1.52,2.05,2.98,2.3,4.4.24,1.42.1,2.76-.44,4.03-.54,1.27-1.26,2.42-2.15,3.46-.84.94-1.9,1.85-3.2,2.72-1.29.87-2.85,1.47-4.67,1.81-1.82.33-3.9.3-6.23-.12-2.33-.41-4.95-1.44-7.83-3.07-4.23-2.4-8.43-4.84-12.61-7.33,5.53-5.81,11.01-11.64,16.45-17.51Zm1.88,3.88c-4.3,4.69-8.63,9.35-12.98,14,2.99,1.75,5.99,3.48,9.01,5.19,3.39,1.92,6.5,2.7,9.29,2.36,2.8-.34,5.19-1.65,7.19-3.91,2.19-2.52,2.94-4.8,2.27-6.83-.67-2.04-2.66-3.96-5.97-5.8-2.94-1.65-5.88-3.31-8.8-5Z"/>
        <path class="cls-2" d="m487.45,1802.96c-1.55-.64-3.06-1.41-4.54-2.31-1.47-.9-2.73-1.88-3.77-2.92-1.04-1.04-1.78-2.09-2.2-3.16-.43-1.07-.4-2.11.07-3.12,1.31.57,2.62,1.13,3.94,1.69-.28.81-.16,1.62.36,2.43.52.81,1.22,1.57,2.1,2.27.88.7,1.83,1.33,2.86,1.88,1.03.56,1.9.98,2.62,1.27,1.58.65,3.04,1.18,4.36,1.59,1.32.42,2.52.68,3.59.79,1.07.11,2,.04,2.77-.22.78-.25,1.39-.72,1.85-1.4.36-.55.35-1.11,0-1.7-.36-.58-.91-1.16-1.65-1.74-.74-.58-1.57-1.14-2.51-1.69-.94-.55-1.81-1.05-2.61-1.52-.67-.39-1.34-.77-2.01-1.16-1.34-.78-2.71-1.61-4.11-2.52-1.4-.9-2.61-1.85-3.61-2.84-1-.99-1.68-2-2.02-3.03-.35-1.03-.13-2.06.64-3.1.55-.75,1.29-1.35,2.21-1.81.92-.46,2.07-.71,3.46-.74,1.38-.04,3.03.17,4.94.6,1.91.43,4.12,1.16,6.64,2.18,1.57.63,3.09,1.36,4.57,2.19,1.47.82,2.72,1.71,3.73,2.66,1.01.95,1.7,1.93,2.07,2.93.36,1.01.22,2.01-.44,3.02-1.26-.48-2.52-.97-3.78-1.45.43-.63.47-1.3.12-1.99-.35-.69-.92-1.37-1.71-2.02-.79-.65-1.72-1.26-2.8-1.84-1.07-.57-2.13-1.07-3.19-1.49-2.07-.84-3.8-1.4-5.2-1.69-1.4-.29-2.57-.42-3.5-.37-.93.04-1.66.21-2.17.52-.51.3-.89.62-1.12.96-.41.55-.48,1.14-.18,1.79.29.64.86,1.32,1.69,2.03.83.71,1.88,1.47,3.16,2.28,1.27.81,2.71,1.67,4.32,2.58,1.41.8,2.79,1.61,4.15,2.43,1.36.82,2.51,1.67,3.46,2.53.95.87,1.6,1.76,1.95,2.68.35.92.19,1.88-.47,2.88-.51.74-1.25,1.35-2.19,1.81-.95.46-2.16.72-3.63.76-1.47.04-3.21-.16-5.22-.62-2.01-.45-4.33-1.22-6.97-2.3Z"/>
        <path class="cls-2" d="m562.98,1804.71c-.41.71-.82,1.42-1.23,2.13-6.27-1.88-12.52-3.84-18.73-5.89-1.44,2.42-2.89,4.84-4.35,7.25,5.1,1.69,10.23,3.33,15.37,4.91-.4.71-.8,1.42-1.2,2.13-5.16-1.59-10.3-3.24-15.42-4.94-1.4,2.31-2.81,4.61-4.22,6.91,6.37,2.14,12.77,4.18,19.2,6.15-.4.71-.8,1.42-1.2,2.13-7.81-2.39-15.58-4.9-23.3-7.55,4.21-6.78,8.37-13.58,12.48-20.4,7.49,2.51,15.02,4.9,22.59,7.16Z"/>
        <path class="cls-2" d="m580.48,1821.74c.63-1.2,1.56-2.37,2.8-3.5,1.24-1.13,2.78-2.04,4.64-2.76,1.85-.71,4.01-1.13,6.47-1.27,2.46-.14,5.25.17,8.36.92,2.24.53,4.14,1.15,5.72,1.85,1.58.7,2.87,1.46,3.87,2.28,1.01.82,1.75,1.67,2.22,2.55.47.88.7,1.76.69,2.65-1.45-.32-2.9-.64-4.35-.96.1-.71-.09-1.37-.54-1.98-.46-.61-1.11-1.17-1.96-1.69-.85-.52-1.85-.99-3.01-1.41-1.16-.42-2.41-.79-3.73-1.11-1.8-.43-3.58-.64-5.32-.64-1.75,0-3.37.24-4.88.71-1.51.47-2.86,1.15-4.07,2.06-1.21.91-2.16,2.04-2.86,3.39-.7,1.35-1.01,2.65-.92,3.89.09,1.24.53,2.39,1.32,3.43.8,1.04,1.89,1.96,3.28,2.75,1.39.79,3.02,1.41,4.87,1.86,1.36.33,2.7.58,4.02.75,1.32.17,2.56.22,3.72.16,1.16-.06,2.18-.23,3.07-.53.89-.3,1.61-.75,2.16-1.36,1.47.33,2.94.66,4.41.99-.73.73-1.67,1.36-2.82,1.88-1.14.52-2.5.9-4.06,1.14-1.56.24-3.31.31-5.23.19-1.92-.11-4.04-.45-6.35-1.02-3.22-.79-5.76-1.81-7.62-3.04-1.86-1.23-3.18-2.55-3.97-3.95-.79-1.4-1.13-2.82-1.04-4.25.09-1.43.46-2.76,1.1-3.99Z"/>
        <path class="cls-2" d="m650.44,1848.88c-3.24-.53-5.77-1.31-7.6-2.31-1.83-1-3.14-2.12-3.93-3.34-.79-1.22-1.16-2.48-1.11-3.8.04-1.31.3-2.54.77-3.7,1.67-3.95,3.33-7.91,4.96-11.87,1.36.24,2.71.48,4.07.72-1.63,4.02-3.27,8.04-4.92,12.05-.45,1.13-.65,2.22-.57,3.27.07,1.05.46,2.02,1.16,2.91.7.89,1.71,1.66,3.03,2.32,1.32.66,3,1.15,5.04,1.48,2.03.33,3.89.41,5.55.24,1.66-.17,3.12-.54,4.38-1.12,1.25-.58,2.31-1.32,3.18-2.22.87-.9,1.51-1.93,1.92-3.07,1.52-4.06,3.02-8.13,4.51-12.2,1.36.19,2.73.38,4.1.57-1.46,4.03-2.93,8.05-4.41,12.07-.41,1.17-1.09,2.35-2.03,3.53-.94,1.18-2.21,2.19-3.8,3.03-1.59.84-3.56,1.43-5.9,1.75-2.35.33-5.14.23-8.38-.3Z"/>
        <path class="cls-2" d="m727.69,1841.8c-.36,1.38-1.29,2.7-2.79,3.94-1.5,1.24-3.74,2.15-6.73,2.73,1.1,2.82,2.22,5.63,3.36,8.44-1.58-.11-3.15-.23-4.73-.35-1.02-2.63-2.02-5.25-3.01-7.88-.5.01-.87.02-1.08.01-.21,0-.43-.02-.67-.04-3.56-.3-7.12-.62-10.68-.96-.76,2.44-1.53,4.88-2.31,7.31-1.42-.14-2.84-.28-4.25-.43,2.47-7.53,4.9-15.07,7.27-22.61,4.85.48,9.7.91,14.56,1.29,2.49.2,4.49.59,6.02,1.19,1.53.6,2.71,1.31,3.54,2.13.83.82,1.35,1.69,1.56,2.61.2.91.18,1.79-.07,2.62Zm-14.1,4.59c2.42.2,4.56-.12,6.42-.94,1.86-.82,3.02-2.12,3.5-3.89.52-1.8.11-3.18-1.2-4.16-1.32-.98-3.16-1.56-5.54-1.75-3.78-.3-7.56-.62-11.33-.97-1.11,3.57-2.23,7.13-3.36,10.69,3.83.37,7.67.71,11.51,1.02Z"/>
        <path class="cls-2" d="m779.48,1835.58c-.17.8-.33,1.59-.5,2.38-6.56.03-13.12-.03-19.67-.18-.62,2.73-1.24,5.45-1.87,8.18,5.39.13,10.78.2,16.17.22-.16.79-.31,1.59-.47,2.38-5.41-.02-10.82-.1-16.22-.23-.61,2.61-1.23,5.21-1.85,7.81,6.73.18,13.46.27,20.2.28-.16.79-.31,1.59-.47,2.38-8.18-.01-16.36-.15-24.54-.42,1.88-7.68,3.71-15.37,5.48-23.07,7.91.21,15.83.3,23.74.26Z"/>
        <path class="cls-2" d="m863.83,1838.26c-.09,1.42-.74,2.88-1.97,4.36-1.23,1.48-3.26,2.78-6.08,3.87,1.63,2.57,3.28,5.14,4.95,7.7-1.57.17-3.14.34-4.72.5-1.51-2.4-3-4.8-4.49-7.21-.49.1-.85.17-1.06.2-.21.03-.43.06-.66.08-3.56.34-7.12.66-10.68.95-.28,2.53-.56,5.06-.84,7.6-1.42.11-2.84.22-4.26.33.97-7.84,1.88-15.67,2.74-23.51,4.86-.39,9.71-.83,14.56-1.32,2.48-.25,4.52-.22,6.14.1,1.62.32,2.92.8,3.9,1.47.98.66,1.66,1.42,2.04,2.28.38.86.53,1.72.44,2.59Zm-12.96,7.02c2.41-.24,4.46-.93,6.13-2.06,1.67-1.14,2.56-2.62,2.68-4.44.16-1.86-.51-3.14-1.99-3.88-1.48-.73-3.41-.97-5.78-.73-3.77.38-7.54.73-11.32,1.05-.4,3.7-.8,7.4-1.22,11.1,3.84-.32,7.67-.66,11.5-1.04Z"/>
        <path class="cls-2" d="m913.52,1822.94c0,.81-.02,1.62-.03,2.43-6.44,1.19-12.9,2.3-19.37,3.33-.07,2.79-.16,5.58-.24,8.36,5.32-.83,10.63-1.72,15.93-2.66,0,.81,0,1.61,0,2.42-5.32.94-10.65,1.83-15.99,2.66-.09,2.67-.19,5.34-.29,8.01,6.65-1.02,13.29-2.13,19.91-3.32,0,.81,0,1.62,0,2.42-8.04,1.45-16.11,2.76-24.2,3.95.35-7.88.65-15.76.9-23.64,7.82-1.2,15.61-2.52,23.39-3.97Z"/>
        <path class="cls-2" d="m937.33,1829.99c-.04-1.35.2-2.8.74-4.35.53-1.55,1.44-3.06,2.72-4.53,1.28-1.47,2.97-2.82,5.07-4.06,2.1-1.24,4.71-2.23,7.82-2.99,2.23-.55,4.22-.87,5.95-.97,1.73-.1,3.25-.01,4.54.25,1.29.27,2.37.68,3.21,1.24.85.56,1.49,1.23,1.92,2.03-1.43.38-2.87.76-4.31,1.13-.27-.67-.75-1.17-1.46-1.49-.7-.33-1.56-.53-2.56-.6-1-.07-2.12-.03-3.35.13-1.23.16-2.51.4-3.83.72-1.8.44-3.47,1.06-5,1.86-1.53.8-2.85,1.74-3.94,2.84-1.1,1.1-1.95,2.31-2.56,3.66-.61,1.35-.9,2.78-.85,4.29.05,1.51.42,2.79,1.11,3.85.69,1.05,1.65,1.86,2.86,2.42,1.21.56,2.63.87,4.25.93,1.62.06,3.35-.13,5.21-.57,1.36-.32,2.67-.71,3.91-1.17,1.25-.45,2.36-.97,3.35-1.55.99-.57,1.81-1.2,2.45-1.87.64-.67,1.05-1.4,1.23-2.18,1.46-.37,2.92-.75,4.38-1.13-.28.98-.8,1.96-1.55,2.93-.75.98-1.76,1.93-3.01,2.85-1.26.92-2.76,1.77-4.51,2.55-1.75.77-3.78,1.44-6.1,1.99-3.23.77-5.97,1.02-8.21.78-2.25-.24-4.06-.8-5.45-1.68-1.39-.88-2.39-1.97-3.01-3.27-.63-1.3-.96-2.64-1.01-4.01Z"/>
        <path class="cls-2" d="m1011.5,1822.38c-3.15,1.02-5.85,1.47-8.08,1.37-2.23-.1-4.06-.54-5.5-1.31-1.44-.77-2.5-1.77-3.2-2.99-.7-1.22-1.13-2.44-1.28-3.67-.15-1.31-.03-2.77.35-4.37.38-1.6,1.13-3.19,2.26-4.79,1.13-1.6,2.67-3.11,4.63-4.54,1.96-1.43,4.46-2.64,7.51-3.64,3.04-1,5.64-1.47,7.8-1.4,2.16.08,3.97.49,5.43,1.25,1.46.76,2.58,1.75,3.36,2.99.78,1.24,1.27,2.51,1.48,3.81.22,1.22.16,2.62-.17,4.18-.33,1.57-1.05,3.16-2.15,4.76-1.1,1.6-2.66,3.14-4.67,4.62-2.01,1.47-4.6,2.73-7.75,3.74Zm-.34-2.4c1.85-.6,3.51-1.37,4.99-2.3,1.48-.94,2.7-1.99,3.68-3.17.97-1.17,1.68-2.44,2.12-3.8.44-1.36.55-2.77.33-4.25-.24-1.52-.76-2.78-1.57-3.78-.8-1-1.8-1.74-3.01-2.21-1.21-.47-2.59-.67-4.16-.61-1.57.06-3.25.39-5.04.98-1.8.59-3.41,1.35-4.86,2.27-1.44.92-2.65,1.97-3.63,3.16-.98,1.19-1.7,2.48-2.15,3.88-.46,1.4-.59,2.87-.41,4.4.17,1.48.62,2.7,1.37,3.67.75.97,1.73,1.68,2.94,2.14,1.21.46,2.62.66,4.22.6,1.6-.06,3.33-.38,5.18-.98Z"/>
        <path class="cls-2" d="m1076.43,1780.74c.36,1.38.19,2.97-.52,4.75-.71,1.78-2.24,3.62-4.6,5.5,2.37,1.97,4.74,3.93,7.14,5.89-1.45.63-2.9,1.25-4.35,1.87-2.19-1.84-4.37-3.7-6.54-5.56-.44.24-.76.41-.95.51-.19.09-.39.19-.6.27-3.29,1.38-6.59,2.73-9.9,4.05.53,2.5,1.05,5,1.57,7.5-1.32.53-2.64,1.05-3.97,1.57-1.53-7.76-3.11-15.51-4.74-23.24,4.52-1.8,9.01-3.65,13.49-5.55,2.29-.97,4.25-1.55,5.9-1.72,1.64-.18,3.04-.1,4.18.24,1.14.34,2.03.87,2.66,1.58.63.71,1.04,1.49,1.24,2.34Zm-10.18,10.53c2.23-.94,3.97-2.2,5.21-3.78,1.24-1.58,1.62-3.26,1.17-5.04-.43-1.82-1.47-2.85-3.11-3.11-1.65-.26-3.56.08-5.75,1.01-3.48,1.48-6.98,2.93-10.48,4.35.78,3.65,1.55,7.3,2.31,10.95,3.57-1.43,7.12-2.89,10.66-4.38Z"/>
        <path class="cls-2" d="m1098,1762.05c4.21-2.07,8.41-4.19,12.58-6.35,2.85-1.48,5.27-2.35,7.27-2.6,2.01-.25,3.69-.11,5.06.45,1.37.55,2.46,1.39,3.28,2.5.82,1.12,1.44,2.32,1.87,3.61.38,1.19.6,2.55.67,4.08.07,1.53-.23,3.13-.91,4.8-.68,1.68-1.81,3.37-3.41,5.07-1.6,1.7-3.87,3.31-6.83,4.81-4.33,2.2-8.68,4.36-13.05,6.48-2.13-7.63-4.31-15.25-6.54-22.84Zm4.37.51c1.8,6.03,3.58,12.07,5.32,18.12,3.1-1.53,6.2-3.08,9.28-4.65,3.46-1.77,5.79-3.91,6.98-6.39,1.19-2.48,1.32-5.15.41-7.99-1.03-3.14-2.62-4.97-4.75-5.5-2.13-.53-4.86.09-8.23,1.83-2.99,1.55-6,3.07-9.01,4.58Z"/>
        <path class="cls-2" d="m1168.36,1750.04c-1.43.89-2.95,1.67-4.56,2.34-1.61.67-3.16,1.13-4.64,1.38-1.48.25-2.8.24-3.95-.02-1.15-.26-2.02-.88-2.61-1.83,1.23-.73,2.46-1.46,3.69-2.2.52.68,1.28,1.05,2.27,1.09.99.04,2.04-.09,3.13-.4,1.1-.31,2.18-.72,3.24-1.23,1.06-.51,1.92-.97,2.58-1.39,1.46-.9,2.74-1.77,3.85-2.6,1.11-.83,2.02-1.64,2.73-2.44.71-.8,1.18-1.59,1.41-2.36.23-.77.19-1.53-.13-2.28-.26-.6-.74-.91-1.45-.95-.7-.04-1.51.08-2.43.34-.91.27-1.87.62-2.87,1.07-1,.45-1.93.86-2.79,1.24-.71.32-1.43.64-2.14.96-1.43.64-2.93,1.26-4.5,1.88-1.57.62-3.06,1.05-4.48,1.29-1.41.25-2.66.21-3.73-.09-1.08-.31-1.83-1.06-2.27-2.26-.32-.87-.41-1.8-.28-2.8.13-1,.58-2.06,1.35-3.19.76-1.13,1.88-2.34,3.34-3.63,1.46-1.29,3.35-2.65,5.65-4.1,1.44-.91,2.93-1.72,4.48-2.44,1.55-.72,3.01-1.22,4.4-1.5,1.39-.28,2.62-.28,3.68,0,1.07.28,1.84.96,2.31,2.06-1.13.75-2.27,1.49-3.41,2.23-.29-.7-.83-1.11-1.62-1.22-.79-.11-1.69-.03-2.7.23-1.01.27-2.06.67-3.17,1.21-1.1.54-2.13,1.11-3.09,1.72-1.9,1.19-3.37,2.26-4.42,3.22-1.05.96-1.83,1.83-2.32,2.6-.5.77-.77,1.45-.8,2.03-.04.58.02,1.06.17,1.44.23.64.7,1.03,1.41,1.16.72.13,1.61.06,2.69-.21,1.08-.27,2.33-.68,3.75-1.24,1.42-.56,2.97-1.23,4.67-2.01,1.48-.68,2.97-1.33,4.44-1.96,1.48-.63,2.86-1.08,4.14-1.35,1.28-.27,2.41-.29,3.39-.05.98.24,1.71.9,2.18,2,.34.84.43,1.76.28,2.79-.15,1.03-.63,2.14-1.44,3.35-.81,1.21-1.98,2.49-3.52,3.85-1.54,1.36-3.52,2.8-5.95,4.3Z"/>
        <path class="cls-2" d="m1244.18,1695.13c-6.72-3.5-13.39-7.07-20.01-10.7,2.93,6.63,5.81,13.28,8.64,19.97-1.16.92-2.31,1.84-3.47,2.75-.43-1.16-.83-2.18-1.19-3.05-.36-.88-.72-1.74-1.09-2.6-.37-.85-.75-1.76-1.16-2.72-.41-.96-.88-2.08-1.44-3.37-.55-1.29-1.2-2.8-1.95-4.53-.75-1.73-1.64-3.8-2.68-6.19,1.8-1.44,3.59-2.9,5.37-4.36,6.72,3.6,13.5,7.13,20.33,10.59-.15-9.09-.48-18.13-.98-27.13,1.73-1.54,3.45-3.09,5.17-4.65,1.51,2.03,2.8,3.8,3.86,5.29,1.07,1.5,2,2.79,2.8,3.89.8,1.1,1.49,2.07,2.07,2.9.58.83,1.14,1.61,1.67,2.34.53.73,1.08,1.45,1.64,2.18.56.72,1.19,1.56,1.9,2.51-1.1,1-2.21,1.99-3.32,2.97-4.08-5.74-8.17-11.46-12.29-17.16.57,8.89.97,17.83,1.2,26.82-1.68,1.43-3.37,2.86-5.07,4.27Z"/>
        <path class="cls-2" d="m1283.67,1625.79c7.87,3.09,15.8,6.08,23.78,8.98-1.07,1.17-2.14,2.33-3.22,3.49-1.98-.67-3.96-1.34-5.93-2.02-4.29,4.58-8.64,9.08-13.04,13.52.25,2.45.49,4.9.72,7.35-1.12,1.11-2.24,2.21-3.36,3.31-.86-10.13-1.92-20.19-3.2-30.18,1.42-1.48,2.83-2.96,4.24-4.45Zm-.7,4.3c.73,5.49,1.39,11,1.99,16.54,3.71-3.76,7.38-7.57,11.01-11.44-4.35-1.67-8.69-3.37-13-5.1Z"/>
        <path class="cls-2" d="m1314.78,1594.32c4.46,5.57,8.9,11.17,13.3,16.8-.94,1.13-1.89,2.27-2.84,3.39-4.91-6.35-9.85-12.66-14.83-18.94,1.43-1.73,2.86-3.47,4.28-5.22,8.93.05,17.92-.09,26.96-.43-4.59-5.47-9.2-10.91-13.84-16.32.87-1.15,1.73-2.3,2.59-3.45,5.26,6.05,10.49,12.15,15.68,18.28-1.43,1.88-2.86,3.76-4.31,5.62-9.05.28-18.05.37-26.99.27Z"/>
        <path class="cls-2" d="m1357.4,1530.92c8.29,1.55,16.61,2.99,24.98,4.32-.86,1.4-1.72,2.8-2.59,4.2-2.07-.28-4.13-.56-6.19-.85-3.46,5.51-7,10.95-10.6,16.32.66,2.43,1.31,4.86,1.95,7.3-.92,1.34-1.84,2.68-2.76,4.02-2.54-10.08-5.29-20.06-8.22-29.93,1.15-1.78,2.3-3.57,3.44-5.37Zm.03,4.51c1.64,5.42,3.22,10.88,4.74,16.37,3.03-4.55,6.02-9.15,8.95-13.81-4.58-.82-9.14-1.68-13.69-2.57Z"/>
        <path class="cls-2" d="m1404.36,1496.98c-1.68,3.19-3.39,5.62-5.13,7.27-1.73,1.66-3.4,2.73-5.01,3.23-1.6.5-3.1.53-4.48.1-1.38-.43-2.59-1.11-3.63-2.06-1.01-.93-1.9-2.17-2.66-3.72-.76-1.54-1.24-3.36-1.42-5.46-.18-2.1,0-4.44.56-7.05.55-2.61,1.64-5.45,3.24-8.56,1.15-2.23,2.28-4.1,3.41-5.6,1.13-1.5,2.23-2.7,3.32-3.57,1.09-.88,2.13-1.47,3.12-1.78,1-.3,1.93-.35,2.8-.13-.71,1.47-1.43,2.93-2.15,4.39-.68-.26-1.37-.22-2.1.13-.72.35-1.46.91-2.2,1.68-.75.78-1.49,1.73-2.22,2.86-.74,1.13-1.45,2.35-2.13,3.67-.93,1.8-1.63,3.61-2.11,5.44-.48,1.83-.7,3.58-.66,5.26.04,1.68.34,3.25.89,4.72.56,1.46,1.4,2.72,2.54,3.76,1.14,1.04,2.33,1.66,3.58,1.86,1.25.19,2.5,0,3.75-.59,1.25-.59,2.46-1.52,3.62-2.8,1.17-1.28,2.23-2.83,3.2-4.67.75-1.42,1.39-2.86,1.92-4.31.53-1.45.87-2.88,1.02-4.29.15-1.41.07-2.81-.22-4.19-.3-1.38-.88-2.73-1.74-4.05-1.11,2.25-2.24,4.49-3.37,6.72-.63-.53-1.26-1.06-1.89-1.59,1.75-3.44,3.47-6.9,5.16-10.39,2.99,2.48,5.98,4.98,8.96,7.48-.44.9-.89,1.8-1.33,2.7-.92-.27-1.85-.54-2.77-.82.12,1.32.1,2.6-.06,3.84-.16,1.24-.42,2.45-.77,3.61-.35,1.16-.8,2.32-1.32,3.46-.53,1.14-1.1,2.29-1.71,3.46Z"/>
        <path class="cls-2" d="m1416.25,1413.02c.67.49,1.34.97,2.01,1.46-2.64,6.93-5.38,13.77-8.21,20.53,2.28,1.71,4.55,3.42,6.81,5.14,2.34-5.54,4.62-11.14,6.83-16.79.67.47,1.34.95,2.02,1.43-2.22,5.67-4.51,11.28-6.87,16.84,2.17,1.65,4.33,3.31,6.49,4.98,2.94-6.91,5.79-13.9,8.54-20.98.67.48,1.34.95,2.02,1.43-3.35,8.6-6.84,17.06-10.47,25.4-6.35-4.95-12.73-9.86-19.13-14.72,3.46-8.12,6.78-16.36,9.96-24.72Z"/>
        <path class="cls-2" d="m1453.14,1377.39c-7.53.88-15.04,1.66-22.55,2.33,5.84,4.49,11.65,9.04,17.44,13.65-.53,1.6-1.07,3.19-1.61,4.78-.95-.84-1.8-1.56-2.55-2.17-.75-.61-1.49-1.21-2.24-1.8-.74-.58-1.53-1.21-2.36-1.87-.83-.66-1.81-1.43-2.93-2.32-1.12-.88-2.44-1.92-3.95-3.1-1.51-1.18-3.31-2.6-5.41-4.23.82-2.5,1.63-5.01,2.43-7.53,7.58-.78,15.16-1.66,22.76-2.66-4.7-8.63-9.53-17.14-14.49-25.52.71-2.6,1.4-5.21,2.08-7.82,2.32,1,4.31,1.88,5.98,2.65,1.67.77,3.12,1.43,4.36,1.98,1.24.55,2.32,1.05,3.23,1.48.91.43,1.78.83,2.61,1.19.82.36,1.66.71,2.5,1.06.84.34,1.81.75,2.89,1.21-.44,1.67-.89,3.34-1.34,5.01-6.38-2.94-12.77-5.85-19.17-8.74,4.97,8.25,9.81,16.62,14.53,25.12-.72,2.45-1.46,4.88-2.2,7.31Z"/>
        <path class="cls-2" d="m1451.1,1301.53c6.39,3.19,12.77,6.42,19.14,9.7-.36,1.69-.72,3.37-1.09,5.05-7.12-3.73-14.27-7.4-21.43-11.01.54-2.57,1.07-5.15,1.59-7.74,8.02-4.98,16.01-10.22,23.96-15.71-6.46-3.03-12.94-6.02-19.43-8.96.28-1.68.56-3.37.83-5.06,7.32,3.26,14.63,6.57,21.92,9.95-.46,2.76-.94,5.51-1.43,8.25-7.98,5.44-16,10.61-24.06,15.54Z"/>
        <path class="cls-2" d="m1464.94,1201.73c-.4,5.05-.84,10.08-1.33,15.07,6.74,2.47,13.47,5,20.19,7.57-.19,1.82-.38,3.63-.58,5.44-6.7-2.62-13.41-5.19-20.14-7.7-.51,4.97-1.07,9.92-1.66,14.83-.76-.32-1.52-.64-2.28-.95,1.39-11.53,2.55-23.24,3.49-35.1.77.28,1.55.57,2.32.85Z"/>
      </g>
    </g>
  </g>
</svg>